<?xml version="1.0" encoding="UTF-8" standalone="no"?><!DOCTYPE svg PUBLIC "-//W3C//DTD SVG 1.1//EN" "http://www.w3.org/Graphics/SVG/1.1/DTD/svg11.dtd"><svg width="100%" height="100%" viewBox="0 0 191 191" version="1.1" xmlns="http://www.w3.org/2000/svg" xmlns:xlink="http://www.w3.org/1999/xlink" xml:space="preserve" xmlns:serif="http://www.serif.com/" style="fill-rule:evenodd;clip-rule:evenodd;stroke-linejoin:round;stroke-miterlimit:2;"><g id="Logo"><circle cx="95.25" cy="95.25" r="79.5" style="fill:url(#_Linear1);"/><g><path d="M104.88,132.598c1.306,-2.64 2.362,-5.664 3.144,-8.951l-25.362,-0c0.782,3.287 1.838,6.311 3.144,8.951c5.629,11.377 13.44,11.388 19.074,0Z" style="fill:#fff;fill-rule:nonzero;"/><path d="M115.144,100.593c0.668,5.587 0.676,11.439 0.023,17.038l16.781,0c1.284,-5.578 1.273,-11.44 -0.045,-17.038l-16.759,0Z" style="fill:#fff;fill-rule:nonzero;"/><path d="M129.934,94.578c-5.251,-12.368 -16.948,-21.362 -30.852,-22.742c8.518,2.785 13.166,13.98 15.061,22.742l15.791,-0Z" style="fill:#fff;fill-rule:nonzero;"/><path d="M81.576,117.631l27.534,0c0.708,-5.553 0.701,-11.486 -0.025,-17.038l-27.484,-0c-0.726,5.551 -0.733,11.484 -0.025,17.038Z" style="fill:#fff;fill-rule:nonzero;"/><path d="M99.082,146.581c13.975,-1.388 25.72,-10.468 30.932,-22.934l-15.83,-0c-1.877,8.818 -6.53,20.13 -15.102,22.934Z" style="fill:#fff;fill-rule:nonzero;"/><path d="M76.502,123.647l-15.829,-0c5.211,12.466 16.956,21.546 30.931,22.934c-8.571,-2.803 -13.224,-14.113 -15.102,-22.934Z" style="fill:#fff;fill-rule:nonzero;"/><path d="M85.806,85.818c-1.281,2.589 -2.32,5.547 -3.098,8.76l25.27,-0c-0.778,-3.213 -1.817,-6.171 -3.098,-8.76c-5.629,-11.377 -13.44,-11.387 -19.074,0Z" style="fill:#fff;fill-rule:nonzero;"/><path d="M75.542,100.593l-16.759,0c-1.318,5.594 -1.329,11.456 -0.045,17.038l16.782,0c-0.653,-5.588 -0.647,-11.441 0.022,-17.038Z" style="fill:#fff;fill-rule:nonzero;"/><path d="M60.752,94.578l15.792,-0c1.893,-8.759 6.54,-19.956 15.06,-22.742c-13.903,1.38 -25.601,10.374 -30.852,22.742Z" style="fill:#fff;fill-rule:nonzero;"/><path d="M134.436,43.919l-78.372,0c-1.661,0 -3.007,1.347 -3.007,3.008c-0,1.661 1.346,3.008 3.007,3.008l3.08,-0l-0,24.271c-0,1.661 1.346,3.008 3.008,3.008c1.661,0 3.007,-1.347 3.007,-3.008l0,-24.271l6.015,-0l0,6.414l48.123,-0.08l0,-6.334l15.139,-0c1.661,-0 3.007,-1.347 3.007,-3.008c0,-1.661 -1.346,-3.008 -3.007,-3.008Z" style="fill:#fff;fill-rule:nonzero;"/><path d="M71.174,72.797c14.28,-9.555 33.269,-9.955 48.123,-0.141l0,-10.372l-48.123,0.08l0,10.433Z" style="fill:#fff;fill-rule:nonzero;"/></g></g><defs><linearGradient id="_Linear1" x1="0" y1="0" x2="1" y2="0" gradientUnits="userSpaceOnUse" gradientTransform="matrix(159,0,0,159,15.75,95.25)"><stop offset="0" style="stop-color:#00b0ff;stop-opacity:1"/><stop offset="1" style="stop-color:#0056ff;stop-opacity:1"/></linearGradient></defs></svg>